PathFileType	4	(X/Y/Z)	C:\Users\WrightLab\Desktop\Jo\P5V12.trc
DataRate	CameraRate	NumFrames	NumMarkers	Units	OrigDataRate	OrigDataStartFrame	OrigNumFrames
100.00	100.00	      15	19	mm	100.00	1559	      2078
Frame#	Time	Headset_Front			Headset_Back			Headset_Left			Headset_Right			Left_Shoulder			Right_Shoulder			Sternum			C7			Left Elbow			Right Elbow			Left Wrist			Right Wrist			Left ASIS			Right ASIS			S2			Left Knee			Right Knee			Left Ankle			Right Ankle			
		X1	Y1	Z1	X2	Y2	Z2	X3	Y3	Z3	X4	Y4	Z4	X5	Y5	Z5	X6	Y6	Z6	X7	Y7	Z7	X8	Y8	Z8	X9	Y9	Z9	X10	Y10	Z10	X11	Y11	Z11	X12	Y12	Z12	X13	Y13	Z13	X14	Y14	Z14	X15	Y15	Z15	X16	Y16	Z16	X17	Y17	Z17	X18	Y18	Z18	X19	Y19	Z19	

1559	15.580	-511.83249	1609.54419	219.05252										-854.56598	1525.03027	419.53299	-594.28497	1514.57764	132.15364	-661.52069	1347.16296	286.23416	-617.83392	1551.55493	490.25912	-971.83649	1265.42407	500.87173	-308.81812	1252.52795	331.89365	-1002.54761	1200.35486	297.58701	-304.31537	1186.37488	97.99652	-797.16943	950.78461	330.56168	-531.62836	974.14429	274.77234	-611.49707	1003.35895	566.91638	-805.45422	510.31784	391.31152	-494.89407	535.75800	238.17119	-746.48004	100.65308	483.63181	-324.92035	237.11884	462.11963	
1560	15.590													-857.83850	1525.32556	416.02103	-594.65332	1514.66956	130.59497	-663.15771	1347.49402	285.55991	-621.93036	1551.86011	488.82864	-976.39679	1266.23083	496.02466	-310.65189	1253.69470	330.95715	-1006.44482	1202.05701	291.81943	-303.47885	1188.22644	96.43536	-798.95459	950.97333	328.50394	-533.79321	974.33350	273.27756	-615.48206	1003.92065	565.45557	-805.64081	509.82605	387.51389	-499.74725	538.02368	234.95801	-745.91901	99.80070	483.60892	-337.09128	231.19237	456.07196	
1561	15.600	-514.28815	1610.55933	218.86707										-860.69220	1525.80017	412.15213	-594.66882	1515.68701	128.70174	-664.98187	1347.71741	282.97552	-625.07251	1552.09363	486.78510	-980.56622	1266.81335	491.20914	-312.12585	1254.70544	330.15253	-1008.88409	1203.81079	287.60187	-303.32034	1190.07739	94.99462	-800.81836	951.21692	326.58911	-534.51776	975.16248	270.87457	-619.21979	1003.98822	563.42493	-805.99817	509.78647	384.12137	-504.57925	538.73291	231.95337	-747.06073	100.22675	483.66431	-348.84784	225.39555	449.36194	
1562	15.610													-863.93536	1525.68665	408.32813	-594.81421	1516.00964	127.76584	-666.32129	1347.57666	282.03482	-629.12640	1552.14270	484.96219	-984.58167	1267.26282	486.45724	-314.08615	1256.22791	328.64581	-1011.65192	1204.21631	282.53891	-302.55203	1191.38550	93.76855	-801.92712	951.47906	323.68930	-535.79669	975.51331	269.70035	-622.41119	1004.65344	561.44391	-806.59186	509.33939	380.68317	-509.13754	540.18787	230.46489	-747.45673	99.97116	483.66751	-360.55093	218.33900	442.00034	
1563	15.620													-866.45551	1525.83997	404.29938	-594.91943	1516.47498	125.45071	-668.40161	1347.61169	279.09848	-632.62677	1552.40601	482.95804	-988.42712	1267.59680	481.75375	-315.29999	1256.81580	327.61316	-1014.25391	1204.16138	277.43481	-301.72977	1192.77747	92.79140	-803.47333	951.51965	321.38074	-537.31024	975.91364	268.28217	-626.65192	1004.91351	559.85321	-807.37408	509.67456	378.53409	-513.13721	541.14899	227.32295	-747.95911	99.96486	483.94879	-372.74518	211.58974	434.09610	
1564	15.630													-869.57434	1525.89917	400.37448	-594.75153	1517.15771	124.07854	-670.75629	1348.07178	276.15247	-636.69452	1553.83606	482.40402	-992.33496	1267.73047	477.08487	-316.70816	1258.01416	326.43137	-1016.11908	1204.49072	272.39893	-301.45270	1194.75610	91.47610	-804.57837	951.52649	318.42883	-538.78680	975.98218	266.41504	-630.44568	1005.63690	558.37122	-808.66125	510.05731	377.62421	-516.26379	542.86945	225.30968	-748.20520	99.89278	483.86716	-385.35052	204.50494	425.64844	
1565	15.640													-872.26538	1525.79651	396.38617	-594.73187	1517.35706	122.20675	-672.06610	1348.03015	275.01663	-641.00922	1553.44031	480.61807	-995.66901	1267.67737	472.33362	-318.59961	1258.59094	325.40649	-1018.23346	1204.68726	267.13922	-300.53253	1196.07666	90.01476	-805.93384	951.57056	315.92926	-539.82288	976.05353	265.07202	-633.73334	1005.58118	556.46204	-810.37885	510.40863	377.62125	-519.56091	543.30524	223.46901	-748.46051	99.73743	483.93335	-397.01620	197.44765	415.30008	
1566	15.650													-874.95923	1525.62317	392.15002	-594.54883	1517.96045	120.15685	-673.80151	1347.88025	272.23849	-643.95343	1553.50684	478.03485	-998.84534	1267.46497	467.60901	-320.11639	1259.66138	324.16483	-1019.27380	1203.44775	262.65228	-299.81503	1197.32739	88.91508	-806.73749	951.38239	312.71048	-541.31860	975.91290	263.16153	-637.62488	1005.98651	555.02173	-811.70917	510.81778	378.09076	-522.99219	544.68030	221.63150	-748.68585	99.60191	484.02988	-408.92871	189.89066	405.79871	
1567	15.660													-877.59723	1525.53748	388.08304	-594.28009	1518.33081	118.36073	-675.57129	1347.57764	269.14099	-647.08203	1553.63403	475.45700	-1002.20953	1267.44910	462.87119	-321.70230	1260.27991	323.17892	-1020.74872	1203.07312	258.41458	-299.07053	1198.77637	87.93843	-808.15027	951.09290	310.26929	-541.91260	975.65155	262.15652	-641.40356	1006.04987	553.40161	-812.47241	510.78320	378.13544	-526.72382	545.22290	220.02806	-748.93408	99.56236	484.12729	-421.25659	183.35376	395.64246	
1568	15.670	-749.47937	1645.82874	181.22366	-519.63855	1612.81458	214.24147							-879.93402	1525.07239	383.67947	-594.09430	1518.18518	117.01762	-677.02582	1348.02930	266.36002	-650.23816	1553.23047	472.69345	-1004.96899	1267.16455	458.03369	-323.42682	1261.34119	321.66901	-1022.03528	1202.43115	253.52002	-297.95560	1199.69629	86.97241	-808.96417	951.10095	307.30408	-544.44733	975.05847	261.97876	-645.09302	1005.98401	551.12836	-813.03827	510.57135	377.95313	-529.97607	546.01587	217.71758	-749.04004	99.54003	484.12796	-433.40643	176.08081	386.31540	
1569	15.680	-750.12427	1645.47546	178.24588	-520.71399	1613.33765	212.28304							-882.60107	1524.98450	379.40970	-593.85486	1518.50220	114.28278	-678.30457	1347.14258	264.26907	-653.40582	1553.40112	470.54309	-1007.81592	1266.65466	453.12543	-324.62354	1261.55029	320.60980	-1023.01703	1201.47778	248.19209	-297.00909	1200.85864	85.66344	-810.01001	950.53577	304.40826	-545.88007	974.75793	261.44095	-648.75073	1005.53009	549.27106	-813.21136	509.99280	377.18976	-533.62311	546.54138	215.77260	-749.21497	99.46884	484.19293	-445.33981	170.26215	375.86133	
1570	15.690	-750.70300	1645.35498	174.22740										-884.96863	1524.35815	375.09842	-593.61652	1518.63965	111.88624	-680.40228	1347.47327	260.89288	-656.07507	1553.13586	467.27451	-1010.53241	1266.47742	448.35312	-325.98608	1262.36060	319.62003	-1024.13379	1200.47229	243.54341	-295.48651	1201.78345	84.70591	-811.14844	950.22571	301.67261	-547.10608	974.19147	259.41068	-652.20929	1005.72339	547.77155	-813.23749	509.47482	376.71402	-536.44165	547.01624	214.25865	-749.26184	99.42850	484.17633	-457.41107	164.25516	365.80176	
1571	15.700	-751.24384	1645.22156	170.45363										-887.34253	1524.51257	370.81842	-593.42206	1518.27563	110.60307	-681.34271	1346.62122	258.85989	-658.77686	1552.72241	464.41351	-1012.90607	1265.92175	443.34409	-327.27069	1262.53577	318.10028	-1024.67200	1199.26221	238.34459	-294.22400	1202.08643	83.76501	-812.00330	949.96185	298.62344	-548.02979	973.66388	258.63431	-655.84491	1005.40692	546.03864	-812.96790	508.76901	375.28259	-539.29059	547.27960	212.73103	-749.32599	99.47641	484.18164	-468.70380	158.25385	355.25763	
1572	15.710	-751.84125	1644.65137	166.56845										-889.50208	1523.85022	366.05804	-593.19037	1518.30005	107.76830	-682.98102	1346.76660	255.55904	-662.28058	1552.64844	461.63290	-1015.10217	1265.49219	438.18317	-328.23056	1263.10254	316.76782	-1025.63757	1198.30432	232.80606	-292.70273	1203.02014	82.10265	-813.08026	949.19012	295.63120	-548.76697	973.73883	257.13608	-658.96503	1005.54541	543.89648	-812.80200	508.11972	373.47061	-542.25079	547.52197	211.28467	-749.36304	99.46754	484.16928	-479.58493	152.91631	344.34732	
1573	15.720	-752.49414	1643.89185	163.11232	-523.34003	1613.47363	204.97520							-891.65692	1523.63147	361.42114	-593.01532	1517.70837	106.00780	-684.48206	1346.47766	252.28252	-665.09912	1552.39282	458.93362	-1017.27826	1264.86279	433.06537	-329.11502	1263.40784	315.90292	-1026.23853	1197.13135	228.37436	-291.29150	1203.27441	80.59901	-814.27448	949.15485	292.91568	-549.83820	973.48322	254.40631	-662.42108	1005.43121	541.77112	-812.73059	507.78329	371.65063	-545.33911	547.68317	210.51448	-749.33728	99.22771	484.29050	-489.69620	147.91599	332.87949	
